<svg xmlns="http://www.w3.org/2000/svg" xmlns:xlink="http://www.w3.org/1999/xlink" viewBox="0 0 755 800" width="755" height="800">
  <rect width="100%" height="100%" fill="#ffffff"/>
  <circle cx="271.7" cy="373.9" r="32.6" fill="#ffffff" stroke="black" stroke-width="3.4"/>
  <line x1="263.7" y1="376.2" x2="238.9" y2="383.5" stroke="#000000" stroke-width="28.4" stroke-linecap="round"/>
  <circle cx="224.6" cy="520.0" r="32.6" fill="#ffffff" stroke="black" stroke-width="3.4"/>
  <line x1="224.6" y1="497.6" x2="224.6" y2="427.8" stroke="#000000" stroke-width="28.4" stroke-linecap="round"/>
  <circle cx="577.4" cy="520.0" r="32.6" fill="#ffffff" stroke="black" stroke-width="3.4"/>
  <line x1="577.4" y1="497.6" x2="577.4" y2="427.8" stroke="#000000" stroke-width="28.4" stroke-linecap="round"/>
  <circle cx="577.4" cy="238.8" r="32.6" fill="#ffffff" stroke="black" stroke-width="3.4"/>
  <line x1="577.4" y1="264.0" x2="577.4" y2="342.5" stroke="#000000" stroke-width="28.4" stroke-linecap="round"/>
  <circle cx="577.4" cy="387.6" r="58.3" fill="#3050f8" stroke="black" stroke-width="3.4"/>
  <line x1="605.9" y1="431.1" x2="655.5" y2="506.7" stroke="#000000" stroke-width="28.4" stroke-linecap="round"/>
  <line x1="605.9" y1="345.8" x2="655.5" y2="273.1" stroke="#000000" stroke-width="28.4" stroke-linecap="round"/>
  <line x1="534.6" y1="390.1" x2="446.5" y2="395.3" stroke="#000000" stroke-width="28.4" stroke-linecap="round"/>
  <circle cx="224.6" cy="387.6" r="58.3" fill="#3050f8" stroke="black" stroke-width="3.4"/>
  <line x1="196.1" y1="345.8" x2="146.5" y2="273.1" stroke="#000000" stroke-width="28.4" stroke-linecap="round"/>
  <line x1="181.8" y1="390.1" x2="107.5" y2="394.5" stroke="#000000" stroke-width="28.4" stroke-linecap="round"/>
  <line x1="267.5" y1="390.1" x2="355.5" y2="395.3" stroke="#000000" stroke-width="28.4" stroke-linecap="round"/>
  <circle cx="671.5" cy="531.0" r="32.6" fill="#ffffff" stroke="black" stroke-width="3.4"/>
  <circle cx="130.6" cy="249.8" r="32.6" fill="#ffffff" stroke="black" stroke-width="3.4"/>
  <circle cx="671.5" cy="249.8" r="32.6" fill="#ffffff" stroke="black" stroke-width="3.4"/>
  <circle cx="83.5" cy="395.9" r="32.6" fill="#ffffff" stroke="black" stroke-width="3.4"/>
  <circle cx="401.0" cy="716.4" r="32.6" fill="#ffffff" stroke="black" stroke-width="3.4"/>
  <line x1="401.0" y1="694.0" x2="401.0" y2="624.2" stroke="#000000" stroke-width="28.4" stroke-linecap="round"/>
  <circle cx="401.0" cy="397.9" r="61.9" fill="#aaaaaa" stroke="black" stroke-width="3.4"/>
  <line x1="401.0" y1="445.9" x2="401.0" y2="538.8" stroke="#000000" stroke-width="28.4" stroke-linecap="round"/>
  <line x1="401.0" y1="355.3" x2="401.0" y2="275.1" stroke="#000000" stroke-width="28.4" stroke-linecap="round"/>
  <circle cx="401.0" cy="83.6" r="32.6" fill="#ffffff" stroke="black" stroke-width="3.4"/>
  <line x1="401.0" y1="108.8" x2="401.0" y2="184.5" stroke="#000000" stroke-width="28.4" stroke-linecap="round"/>
  <circle cx="259.9" cy="675.0" r="32.6" fill="#ffffff" stroke="black" stroke-width="3.4"/>
  <line x1="283.8" y1="659.6" x2="358.2" y2="611.6" stroke="#000000" stroke-width="28.4" stroke-linecap="round"/>
  <circle cx="401.0" cy="584.0" r="58.3" fill="#3050f8" stroke="black" stroke-width="3.4"/>
  <line x1="443.8" y1="586.5" x2="518.2" y2="590.9" stroke="#000000" stroke-width="28.4" stroke-linecap="round"/>
  <line x1="401.0" y1="574.0" x2="401.0" y2="556.5" stroke="#000000" stroke-width="28.4" stroke-linecap="round"/>
  <circle cx="401.0" cy="232.5" r="61.9" fill="#aaaaaa" stroke="black" stroke-width="3.4"/>
  <line x1="446.5" y1="235.1" x2="518.2" y2="239.3" stroke="#000000" stroke-width="28.4" stroke-linecap="round"/>
  <line x1="355.5" y1="235.1" x2="283.8" y2="239.3" stroke="#000000" stroke-width="28.4" stroke-linecap="round"/>
  <circle cx="542.1" cy="592.3" r="32.6" fill="#ffffff" stroke="black" stroke-width="3.4"/>
  <circle cx="542.1" cy="240.7" r="32.6" fill="#ffffff" stroke="black" stroke-width="3.4"/>
  <circle cx="259.9" cy="240.7" r="32.6" fill="#ffffff" stroke="black" stroke-width="3.4"/>
  <circle cx="401.0" cy="550.9" r="32.6" fill="#ffffff" stroke="black" stroke-width="3.4"/>
</svg>