<svg xmlns="http://www.w3.org/2000/svg" xmlns:xlink="http://www.w3.org/1999/xlink" viewBox="0 0 787 800" width="787" height="800">
  <rect width="100%" height="100%" fill="#ffffff"/>
  <circle cx="187.0" cy="541.9" r="57.2" fill="#ffffff" stroke="#696969" stroke-width="6.0"/>
  <line x1="211.1" y1="525.7" x2="270.5" y2="485.9" stroke="#161616" stroke-width="50.0" stroke-linecap="round"/>
  <circle cx="501.1" cy="560.8" r="57.2" fill="#ffffff" stroke="#474747" stroke-width="6.0"/>
  <line x1="466.6" y1="541.1" x2="381.8" y2="492.7" stroke="#101010" stroke-width="50.0" stroke-linecap="round"/>
  <circle cx="187.0" cy="242.2" r="57.2" fill="#fefefe" stroke="#292929" stroke-width="6.0"/>
  <line x1="211.1" y1="281.9" x2="270.5" y2="379.7" stroke="#0a0a0a" stroke-width="50.0" stroke-linecap="round"/>
  <circle cx="501.1" cy="261.2" r="57.2" fill="#ffffff" stroke="#151515" stroke-width="6.0"/>
  <line x1="466.6" y1="297.3" x2="381.8" y2="386.4" stroke="#060606" stroke-width="50.0" stroke-linecap="round"/>
  <circle cx="316.4" cy="455.2" r="108.8" fill="#ababab" stroke="#050505" stroke-width="6.0"/>
  <line x1="412.8" y1="461.0" x2="604.6" y2="472.6" stroke="#000000" stroke-width="50.0" stroke-linecap="round"/>
  <line x1="250.9" y1="524.0" x2="166.1" y2="613.1" stroke="#000000" stroke-width="50.0" stroke-linecap="round"/>
  <line x1="316.4" y1="363.2" x2="316.4" y2="180.2" stroke="#000000" stroke-width="50.0" stroke-linecap="round"/>
  <line x1="362.2" y1="530.7" x2="421.6" y2="628.5" stroke="#000000" stroke-width="50.0" stroke-linecap="round"/>
  <line x1="250.9" y1="417.8" x2="166.1" y2="369.3" stroke="#000000" stroke-width="50.0" stroke-linecap="round"/>
  <line x1="362.2" y1="424.5" x2="421.6" y2="384.7" stroke="#000000" stroke-width="50.0" stroke-linecap="round"/>
  <line x1="299.4" y1="488.2" x2="265.5" y2="553.8" stroke="#000000" stroke-width="50.0" stroke-linecap="round"/>
  <circle cx="655.3" cy="475.7" r="57.2" fill="#ffffff" stroke="#000000" stroke-width="6.0"/>
  <circle cx="131.7" cy="649.3" r="57.2" fill="#ffffff" stroke="#000000" stroke-width="6.0"/>
  <circle cx="316.4" cy="131.8" r="57.2" fill="#ffffff" stroke="#000000" stroke-width="6.0"/>
  <circle cx="445.7" cy="668.2" r="57.2" fill="#ffffff" stroke="#000000" stroke-width="6.0"/>
  <circle cx="131.7" cy="349.6" r="57.2" fill="#ffffff" stroke="#000000" stroke-width="6.0"/>
  <circle cx="445.7" cy="368.6" r="57.2" fill="#ffffff" stroke="#000000" stroke-width="6.0"/>
  <circle cx="256.6" cy="571.2" r="57.2" fill="#ffffff" stroke="#000000" stroke-width="6.0"/>
</svg>