<svg xmlns="http://www.w3.org/2000/svg" xmlns:xlink="http://www.w3.org/1999/xlink" viewBox="0 0 800 520" width="800" height="520">
  <rect width="100%" height="100%" fill="#ffffff"/>
  <circle cx="282.7" cy="405.2" r="48.6" fill="#ffffff" stroke="black" stroke-width="5.1"/>
  <line x1="271.2" y1="383.7" x2="252.6" y2="349.2" stroke="#000000" stroke-width="42.5" stroke-linecap="round"/>
  <circle cx="198.9" cy="114.8" r="48.6" fill="#ffffff" stroke="black" stroke-width="5.1"/>
  <line x1="205.9" y1="157.8" x2="217.2" y2="226.6" stroke="#000000" stroke-width="42.5" stroke-linecap="round"/>
  <circle cx="230.5" cy="308.4" r="92.4" fill="#aaaaaa" stroke="black" stroke-width="5.1"/>
  <line x1="181.8" y1="349.2" x2="140.6" y2="383.7" stroke="#000000" stroke-width="42.5" stroke-linecap="round"/>
  <line x1="302.6" y1="308.4" x2="442.1" y2="308.4" stroke="#000000" stroke-width="42.5" stroke-linecap="round"/>
  <circle cx="685.0" cy="400.9" r="48.6" fill="#ffffff" stroke="black" stroke-width="5.1"/>
  <line x1="650.5" y1="382.7" x2="571.6" y2="341.0" stroke="#000000" stroke-width="42.5" stroke-linecap="round"/>
  <circle cx="685.0" cy="215.9" r="48.6" fill="#ffffff" stroke="black" stroke-width="5.1"/>
  <line x1="650.5" y1="234.1" x2="571.6" y2="275.8" stroke="#000000" stroke-width="42.5" stroke-linecap="round"/>
  <circle cx="115.0" cy="405.2" r="48.6" fill="#ffffff" stroke="black" stroke-width="5.1"/>
  <circle cx="509.9" cy="308.4" r="87.0" fill="#3050f8" stroke="black" stroke-width="5.1"/>
  <line x1="509.9" y1="341.0" x2="509.9" y2="382.7" stroke="#000000" stroke-width="42.5" stroke-linecap="round"/>
  <line x1="509.9" y1="275.8" x2="509.9" y2="234.1" stroke="#000000" stroke-width="42.5" stroke-linecap="round"/>
  <circle cx="509.9" cy="400.9" r="48.6" fill="#ffffff" stroke="black" stroke-width="5.1"/>
  <circle cx="509.9" cy="215.9" r="48.6" fill="#ffffff" stroke="black" stroke-width="5.1"/>
</svg>