<svg xmlns="http://www.w3.org/2000/svg" xmlns:xlink="http://www.w3.org/1999/xlink" viewBox="0 0 800 745" width="800" height="745">
  <rect width="100%" height="100%" fill="#ffffff"/>
  <circle cx="224.1" cy="466.1" r="32.5" fill="#ffffff" stroke="black" stroke-width="3.4"/>
  <line x1="224.1" y1="443.7" x2="224.1" y2="376.6" stroke="#000000" stroke-width="28.3" stroke-linecap="round"/>
  <circle cx="575.9" cy="466.1" r="32.5" fill="#ffffff" stroke="black" stroke-width="3.4"/>
  <line x1="575.9" y1="443.7" x2="575.9" y2="376.6" stroke="#000000" stroke-width="28.3" stroke-linecap="round"/>
  <circle cx="575.9" cy="185.6" r="32.5" fill="#ffffff" stroke="black" stroke-width="3.4"/>
  <line x1="575.9" y1="210.8" x2="575.9" y2="286.2" stroke="#000000" stroke-width="28.3" stroke-linecap="round"/>
  <circle cx="224.1" cy="185.6" r="32.5" fill="#ffffff" stroke="black" stroke-width="3.4"/>
  <line x1="224.1" y1="210.8" x2="224.1" y2="286.2" stroke="#000000" stroke-width="28.3" stroke-linecap="round"/>
  <circle cx="224.1" cy="334.1" r="61.7" fill="#aaaaaa" stroke="black" stroke-width="3.4"/>
  <line x1="178.8" y1="336.7" x2="107.3" y2="340.9" stroke="#000000" stroke-width="28.3" stroke-linecap="round"/>
  <line x1="269.5" y1="336.7" x2="354.6" y2="341.7" stroke="#000000" stroke-width="28.3" stroke-linecap="round"/>
  <circle cx="575.9" cy="334.1" r="61.7" fill="#aaaaaa" stroke="black" stroke-width="3.4"/>
  <line x1="621.2" y1="336.7" x2="692.7" y2="340.9" stroke="#000000" stroke-width="28.3" stroke-linecap="round"/>
  <line x1="530.5" y1="336.7" x2="445.4" y2="341.7" stroke="#000000" stroke-width="28.3" stroke-linecap="round"/>
  <circle cx="83.4" cy="342.3" r="32.5" fill="#ffffff" stroke="black" stroke-width="3.4"/>
  <circle cx="716.6" cy="342.3" r="32.5" fill="#ffffff" stroke="black" stroke-width="3.4"/>
  <circle cx="400.0" cy="661.9" r="32.5" fill="#ffffff" stroke="black" stroke-width="3.4"/>
  <line x1="400.0" y1="639.5" x2="400.0" y2="572.4" stroke="#000000" stroke-width="28.3" stroke-linecap="round"/>
  <circle cx="400.0" cy="344.3" r="61.7" fill="#aaaaaa" stroke="black" stroke-width="3.4"/>
  <line x1="400.0" y1="392.2" x2="400.0" y2="482.0" stroke="#000000" stroke-width="28.3" stroke-linecap="round"/>
  <line x1="400.0" y1="301.8" x2="400.0" y2="217.5" stroke="#000000" stroke-width="28.3" stroke-linecap="round"/>
  <circle cx="400.0" cy="529.9" r="61.7" fill="#aaaaaa" stroke="black" stroke-width="3.4"/>
  <line x1="445.4" y1="532.5" x2="516.8" y2="536.7" stroke="#000000" stroke-width="28.3" stroke-linecap="round"/>
  <line x1="354.6" y1="532.5" x2="283.2" y2="536.7" stroke="#000000" stroke-width="28.3" stroke-linecap="round"/>
  <circle cx="259.3" cy="83.1" r="32.5" fill="#ffffff" stroke="black" stroke-width="3.4"/>
  <line x1="283.2" y1="99.4" x2="359.3" y2="151.5" stroke="#000000" stroke-width="28.3" stroke-linecap="round"/>
  <circle cx="400.0" cy="179.3" r="55.4" fill="#ff0d0d" stroke="black" stroke-width="3.4"/>
  <circle cx="540.7" cy="538.1" r="32.5" fill="#ffffff" stroke="black" stroke-width="3.4"/>
  <circle cx="259.3" cy="538.1" r="32.5" fill="#ffffff" stroke="black" stroke-width="3.4"/>
</svg>