<svg xmlns="http://www.w3.org/2000/svg" xmlns:xlink="http://www.w3.org/1999/xlink" width="800" height="480">
  <rect width="100%" height="100%" fill="#ffffff"/>
  <circle cx="307.4" cy="118.8" r="24.8" fill="#ffffff" stroke="#000000" stroke-width="2.7"/>
  <line x1="303.6" y1="127.8" x2="293.9" y2="150.5" stroke="#000000" stroke-width="22.8" stroke-linecap="round"/>
  <circle cx="251.8" cy="393.3" r="24.8" fill="#ffffff" stroke="#000000" stroke-width="2.7"/>
  <line x1="242.5" y1="377.5" x2="219.3" y2="338.3" stroke="#000000" stroke-width="22.8" stroke-linecap="round"/>
  <circle cx="87.1" cy="282.0" r="24.8" fill="#ffffff" stroke="#000000" stroke-width="2.7"/>
  <line x1="108.2" y1="286.9" x2="161.5" y2="299.2" stroke="#000000" stroke-width="22.8" stroke-linecap="round"/>
  <circle cx="201.6" cy="308.4" r="47.1" fill="#909090" stroke="#000000" stroke-width="2.7"/>
  <line x1="223.5" y1="272.1" x2="264.6" y2="204.1" stroke="#000000" stroke-width="22.8" stroke-linecap="round"/>
  <line x1="200.4" y1="324.0" x2="198.9" y2="345.1" stroke="#000000" stroke-width="22.8" stroke-linecap="round"/>
  <circle cx="651.9" cy="184.7" r="44.4" fill="#3050f8" stroke="#000000" stroke-width="2.7"/>
  <line x1="671.9" y1="219.3" x2="692.9" y2="255.8" stroke="#000000" stroke-width="22.8" stroke-linecap="round"/>
  <circle cx="712.9" cy="290.3" r="44.4" fill="#3050f8" stroke="#000000" stroke-width="2.7"/>
  <circle cx="286.5" cy="167.8" r="47.1" fill="#909090" stroke="#000000" stroke-width="2.7"/>
  <line x1="324.2" y1="171.3" x2="374.4" y2="175.9" stroke="#000000" stroke-width="22.8" stroke-linecap="round"/>
  <line x1="261.9" y1="139.8" x2="228.2" y2="101.5" stroke="#000000" stroke-width="22.8" stroke-linecap="round"/>
  <circle cx="394.3" cy="177.7" r="24.8" fill="#ffffff" stroke="#000000" stroke-width="2.7"/>
  <circle cx="215.3" cy="86.7" r="24.8" fill="#ffffff" stroke="#000000" stroke-width="2.7"/>
  <circle cx="198.4" cy="353.3" r="24.8" fill="#ffffff" stroke="#000000" stroke-width="2.7"/>
</svg>