<svg xmlns="http://www.w3.org/2000/svg" xmlns:xlink="http://www.w3.org/1999/xlink" width="800" height="259">
  <rect width="100%" height="100%" fill="#ffffff"/>
  <circle cx="620.0" cy="171.9" r="14.4" fill="#ffffff" stroke="#000000" stroke-width="1.6"/>
  <line x1="618.2" y1="164.8" x2="613.4" y2="146.5" stroke="#000000" stroke-width="13.3" stroke-linecap="round"/>
  <circle cx="365.4" cy="171.9" r="14.4" fill="#ffffff" stroke="#000000" stroke-width="1.6"/>
  <line x1="363.5" y1="164.8" x2="358.8" y2="146.5" stroke="#000000" stroke-width="13.3" stroke-linecap="round"/>
  <circle cx="343.5" cy="67.0" r="14.4" fill="#ffffff" stroke="#000000" stroke-width="1.6"/>
  <line x1="345.7" y1="79.0" x2="351.2" y2="110.2" stroke="#000000" stroke-width="13.3" stroke-linecap="round"/>
  <circle cx="598.2" cy="67.0" r="14.4" fill="#ffffff" stroke="#000000" stroke-width="1.6"/>
  <line x1="600.3" y1="79.0" x2="605.9" y2="110.2" stroke="#000000" stroke-width="13.3" stroke-linecap="round"/>
  <circle cx="137.6" cy="77.4" r="14.4" fill="#ffffff" stroke="#000000" stroke-width="1.6"/>
  <line x1="136.4" y1="87.7" x2="133.5" y2="113.5" stroke="#000000" stroke-width="13.3" stroke-linecap="round"/>
  <circle cx="137.4" cy="192.0" r="14.4" fill="#ffffff" stroke="#000000" stroke-width="1.6"/>
  <line x1="136.2" y1="181.0" x2="133.4" y2="153.8" stroke="#000000" stroke-width="13.3" stroke-linecap="round"/>
  <circle cx="609.9" cy="133.0" r="27.4" fill="#909090" stroke="#000000" stroke-width="1.6"/>
  <line x1="589.5" y1="139.5" x2="563.0" y2="148.0" stroke="#000000" stroke-width="13.3" stroke-linecap="round"/>
  <line x1="628.9" y1="132.8" x2="664.6" y2="132.3" stroke="#000000" stroke-width="13.3" stroke-linecap="round"/>
  <circle cx="355.3" cy="133.0" r="27.4" fill="#909090" stroke="#000000" stroke-width="1.6"/>
  <line x1="334.9" y1="139.5" x2="308.3" y2="148.0" stroke="#000000" stroke-width="13.3" stroke-linecap="round"/>
  <line x1="374.2" y1="133.0" x2="409.9" y2="133.0" stroke="#000000" stroke-width="13.3" stroke-linecap="round"/>
  <circle cx="484.3" cy="113.2" r="14.4" fill="#ffffff" stroke="#000000" stroke-width="1.6"/>
  <line x1="474.2" y1="116.8" x2="448.0" y2="126.2" stroke="#000000" stroke-width="13.3" stroke-linecap="round"/>
  <circle cx="131.3" cy="133.0" r="27.4" fill="#909090" stroke="#000000" stroke-width="1.6"/>
  <line x1="108.7" y1="132.7" x2="79.2" y2="132.2" stroke="#000000" stroke-width="13.3" stroke-linecap="round"/>
  <line x1="148.7" y1="133.0" x2="171.8" y2="133.0" stroke="#000000" stroke-width="13.3" stroke-linecap="round"/>
  <circle cx="732.6" cy="172.4" r="14.4" fill="#ffffff" stroke="#000000" stroke-width="1.6"/>
  <line x1="723.7" y1="165.1" x2="700.5" y2="146.0" stroke="#000000" stroke-width="13.3" stroke-linecap="round"/>
  <circle cx="297.6" cy="151.4" r="14.4" fill="#ffffff" stroke="#000000" stroke-width="1.6"/>
  <circle cx="552.2" cy="151.4" r="14.4" fill="#ffffff" stroke="#000000" stroke-width="1.6"/>
  <circle cx="67.4" cy="132.1" r="14.4" fill="#ffffff" stroke="#000000" stroke-width="1.6"/>
  <circle cx="683.6" cy="132.0" r="27.4" fill="#909090" stroke="#000000" stroke-width="1.6"/>
  <line x1="680.3" y1="140.7" x2="676.1" y2="152.1" stroke="#000000" stroke-width="13.3" stroke-linecap="round"/>
  <circle cx="428.8" cy="133.0" r="27.4" fill="#909090" stroke="#000000" stroke-width="1.6"/>
  <line x1="428.1" y1="118.4" x2="427.1" y2="99.4" stroke="#000000" stroke-width="13.3" stroke-linecap="round"/>
  <circle cx="180.9" cy="133.0" r="14.4" fill="#ffffff" stroke="#000000" stroke-width="1.6"/>
  <circle cx="426.7" cy="91.7" r="14.4" fill="#ffffff" stroke="#000000" stroke-width="1.6"/>
  <circle cx="674.4" cy="156.7" r="14.4" fill="#ffffff" stroke="#000000" stroke-width="1.6"/>
</svg>