<svg xmlns="http://www.w3.org/2000/svg" xmlns:xlink="http://www.w3.org/1999/xlink" width="800" height="259">
  <rect width="100%" height="100%" fill="#ffffff"/>
  <circle cx="624.0" cy="176.1" r="14.3" fill="#ffffff" stroke="#000000" stroke-width="1.6"/>
  <line x1="620.2" y1="167.1" x2="610.2" y2="143.7" stroke="#000000" stroke-width="13.2" stroke-linecap="round"/>
  <circle cx="597.6" cy="67.0" r="14.3" fill="#ffffff" stroke="#000000" stroke-width="1.6"/>
  <line x1="598.6" y1="78.0" x2="601.0" y2="105.5" stroke="#000000" stroke-width="13.2" stroke-linecap="round"/>
  <circle cx="136.9" cy="71.7" r="14.3" fill="#ffffff" stroke="#000000" stroke-width="1.6"/>
  <line x1="135.7" y1="81.9" x2="132.8" y2="107.5" stroke="#000000" stroke-width="13.2" stroke-linecap="round"/>
  <circle cx="136.7" cy="185.4" r="14.3" fill="#ffffff" stroke="#000000" stroke-width="1.6"/>
  <line x1="135.5" y1="174.6" x2="132.7" y2="147.5" stroke="#000000" stroke-width="13.2" stroke-linecap="round"/>
  <circle cx="602.9" cy="126.6" r="27.2" fill="#909090" stroke="#000000" stroke-width="1.6"/>
  <line x1="580.4" y1="132.7" x2="550.8" y2="140.8" stroke="#000000" stroke-width="13.2" stroke-linecap="round"/>
  <line x1="620.1" y1="126.7" x2="652.7" y2="126.9" stroke="#000000" stroke-width="13.2" stroke-linecap="round"/>
  <circle cx="539.0" cy="144.0" r="14.3" fill="#ffffff" stroke="#000000" stroke-width="1.6"/>
  <circle cx="320.2" cy="123.2" r="24.4" fill="#ff0d0d" stroke="#000000" stroke-width="1.6"/>
  <line x1="320.2" y1="145.1" x2="320.2" y2="173.1" stroke="#000000" stroke-width="13.2" stroke-linecap="round"/>
  <circle cx="320.2" cy="186.0" r="14.3" fill="#ffffff" stroke="#000000" stroke-width="1.6"/>
  <circle cx="446.6" cy="123.2" r="24.4" fill="#ff0d0d" stroke="#000000" stroke-width="1.6"/>
  <line x1="446.6" y1="145.1" x2="446.6" y2="173.1" stroke="#000000" stroke-width="13.2" stroke-linecap="round"/>
  <circle cx="446.6" cy="186.0" r="14.3" fill="#ffffff" stroke="#000000" stroke-width="1.6"/>
  <circle cx="130.6" cy="126.9" r="27.2" fill="#909090" stroke="#000000" stroke-width="1.6"/>
  <line x1="108.2" y1="126.6" x2="78.9" y2="126.1" stroke="#000000" stroke-width="13.2" stroke-linecap="round"/>
  <line x1="147.9" y1="126.9" x2="170.8" y2="126.9" stroke="#000000" stroke-width="13.2" stroke-linecap="round"/>
  <circle cx="732.8" cy="105.6" r="14.3" fill="#ffffff" stroke="#000000" stroke-width="1.6"/>
  <line x1="721.2" y1="109.6" x2="692.1" y2="119.5" stroke="#000000" stroke-width="13.2" stroke-linecap="round"/>
  <circle cx="67.2" cy="126.0" r="14.3" fill="#ffffff" stroke="#000000" stroke-width="1.6"/>
  <circle cx="670.0" cy="127.0" r="27.2" fill="#909090" stroke="#000000" stroke-width="1.6"/>
  <line x1="670.8" y1="149.6" x2="671.8" y2="180.2" stroke="#000000" stroke-width="13.2" stroke-linecap="round"/>
  <line x1="662.3" y1="110.7" x2="651.7" y2="88.2" stroke="#000000" stroke-width="13.2" stroke-linecap="round"/>
  <circle cx="179.9" cy="126.9" r="14.3" fill="#ffffff" stroke="#000000" stroke-width="1.6"/>
  <circle cx="672.2" cy="192.0" r="14.3" fill="#ffffff" stroke="#000000" stroke-width="1.6"/>
  <circle cx="647.6" cy="79.6" r="14.3" fill="#ffffff" stroke="#000000" stroke-width="1.6"/>
</svg>