<svg xmlns="http://www.w3.org/2000/svg" xmlns:xlink="http://www.w3.org/1999/xlink" width="767" height="800">
  <rect width="100%" height="100%" fill="#ffffff"/>
  <circle cx="298.3" cy="470.8" r="26.6" fill="#ffffff" stroke="#b2b2b2" stroke-width="9.4"/>
  <line x1="305.5" y1="457.0" x2="331.1" y2="408.0" stroke="#787878" stroke-width="23.6" stroke-linecap="round"/>
  <circle cx="331.1" cy="235.2" r="26.6" fill="#ffffff" stroke="#8e8e8e" stroke-width="9.4"/>
  <line x1="333.2" y1="258.0" x2="340.8" y2="338.6" stroke="#6b6b6b" stroke-width="23.6" stroke-linecap="round"/>
  <circle cx="666.5" cy="400.2" r="26.6" fill="#ffffff" stroke="#838383" stroke-width="9.4"/>
  <line x1="647.4" y1="405.3" x2="580.7" y2="423.4" stroke="#5f5f5f" stroke-width="23.6" stroke-linecap="round"/>
  <circle cx="344.8" cy="381.8" r="50.6" fill="#bfbfbf" stroke="#6c6c6c" stroke-width="9.4"/>
  <line x1="387.4" y1="392.8" x2="501.8" y2="422.2" stroke="#5b5b5b" stroke-width="23.6" stroke-linecap="round"/>
  <line x1="321.2" y1="390.4" x2="255.3" y2="414.4" stroke="#4b4b4b" stroke-width="23.6" stroke-linecap="round"/>
  <circle cx="544.4" cy="433.2" r="50.6" fill="#afafaf" stroke="#484848" stroke-width="9.4"/>
  <line x1="559.8" y1="456.1" x2="562.5" y2="507.0" stroke="#424242" stroke-width="16.5" stroke-linecap="round"/>
  <line x1="531.5" y1="457.6" x2="534.2" y2="508.5" stroke="#424242" stroke-width="16.5" stroke-linecap="round"/>
  <circle cx="90.5" cy="477.4" r="26.6" fill="#ffffff" stroke="#1b1b1b" stroke-width="9.4"/>
  <line x1="112.4" y1="468.9" x2="189.9" y2="439.0" stroke="#3d3d3d" stroke-width="23.6" stroke-linecap="round"/>
  <circle cx="231.7" cy="422.9" r="50.6" fill="#979797" stroke="#111111" stroke-width="9.4"/>
  <line x1="226.9" y1="384.3" x2="218.0" y2="312.3" stroke="#363636" stroke-width="23.6" stroke-linecap="round"/>
  <line x1="257.3" y1="452.0" x2="328.8" y2="533.4" stroke="#353535" stroke-width="23.6" stroke-linecap="round"/>
  <circle cx="549.6" cy="531.4" r="50.6" fill="#949494" stroke="#090909" stroke-width="9.4"/>
  <line x1="587.4" y1="548.7" x2="656.7" y2="580.2" stroke="#343434" stroke-width="23.6" stroke-linecap="round"/>
  <line x1="507.9" y1="538.1" x2="396.1" y2="555.9" stroke="#343434" stroke-width="23.6" stroke-linecap="round"/>
  <circle cx="215.4" cy="292.0" r="26.6" fill="#ffffff" stroke="#020202" stroke-width="9.4"/>
  <circle cx="310.9" cy="709.4" r="26.6" fill="#ffffff" stroke="#010101" stroke-width="9.4"/>
  <line x1="317.7" y1="686.7" x2="341.6" y2="605.7" stroke="#333333" stroke-width="23.6" stroke-linecap="round"/>
  <circle cx="676.5" cy="589.3" r="26.6" fill="#ffffff" stroke="#000000" stroke-width="9.4"/>
  <circle cx="354.4" cy="562.5" r="50.6" fill="#909090" stroke="#000000" stroke-width="9.4"/>
  <line x1="352.2" y1="554.7" x2="348.2" y2="540.3" stroke="#333333" stroke-width="23.6" stroke-linecap="round"/>
  <circle cx="563.3" cy="203.2" r="26.6" fill="#ffffff" stroke="#000000" stroke-width="9.4"/>
  <line x1="556.6" y1="183.6" x2="536.4" y2="124.0" stroke="#333333" stroke-width="23.6" stroke-linecap="round"/>
  <circle cx="525.0" cy="90.6" r="45.4" fill="#ff0d0d" stroke="#000000" stroke-width="9.4"/>
  <circle cx="347.0" cy="536.3" r="26.6" fill="#ffffff" stroke="#000000" stroke-width="9.4"/>
</svg>