<svg xmlns="http://www.w3.org/2000/svg" xmlns:xlink="http://www.w3.org/1999/xlink" width="800" height="655">
  <rect width="100%" height="100%" fill="#ffffff"/>
  <circle cx="339.8" cy="354.6" r="26.6" fill="#ffffff" stroke="#b2b2b2" stroke-width="9.4"/>
  <line x1="345.6" y1="340.4" x2="366.2" y2="289.9" stroke="#777777" stroke-width="23.5" stroke-linecap="round"/>
  <circle cx="393.3" cy="120.0" r="26.6" fill="#ffffff" stroke="#949494" stroke-width="9.4"/>
  <line x1="390.7" y1="142.3" x2="381.9" y2="220.6" stroke="#6c6c6c" stroke-width="23.5" stroke-linecap="round"/>
  <circle cx="377.1" cy="262.9" r="50.5" fill="#bebebe" stroke="#6b6b6b" stroke-width="9.4"/>
  <line x1="415.3" y1="278.3" x2="517.0" y2="319.3" stroke="#555555" stroke-width="23.5" stroke-linecap="round"/>
  <line x1="346.7" y1="265.6" x2="261.9" y2="273.1" stroke="#4d4d4d" stroke-width="23.5" stroke-linecap="round"/>
  <circle cx="690.9" cy="331.1" r="26.6" fill="#ffffff" stroke="#5c5c5c" stroke-width="9.4"/>
  <line x1="669.6" y1="331.7" x2="595.6" y2="333.6" stroke="#535353" stroke-width="23.5" stroke-linecap="round"/>
  <circle cx="555.1" cy="334.7" r="50.5" fill="#a7a7a7" stroke="#343434" stroke-width="9.4"/>
  <line x1="559.2" y1="362.6" x2="539.5" y2="412.3" stroke="#3c3c3c" stroke-width="16.5" stroke-linecap="round"/>
  <line x1="532.9" y1="352.2" x2="513.3" y2="401.9" stroke="#3c3c3c" stroke-width="16.5" stroke-linecap="round"/>
  <circle cx="90.5" cy="311.1" r="26.6" fill="#ffffff" stroke="#2b2b2b" stroke-width="9.4"/>
  <line x1="112.4" y1="305.6" x2="189.8" y2="286.3" stroke="#414141" stroke-width="23.5" stroke-linecap="round"/>
  <circle cx="231.5" cy="275.8" r="50.5" fill="#9a9a9a" stroke="#171717" stroke-width="9.4"/>
  <line x1="229.6" y1="235.7" x2="225.9" y2="161.3" stroke="#393939" stroke-width="23.5" stroke-linecap="round"/>
  <line x1="248.1" y1="306.9" x2="294.4" y2="393.8" stroke="#353535" stroke-width="23.5" stroke-linecap="round"/>
  <circle cx="224.9" cy="140.2" r="26.6" fill="#ffffff" stroke="#060606" stroke-width="9.4"/>
  <circle cx="517.4" cy="429.9" r="50.5" fill="#919191" stroke="#030303" stroke-width="9.4"/>
  <line x1="473.1" y1="428.8" x2="355.2" y2="426.0" stroke="#333333" stroke-width="23.5" stroke-linecap="round"/>
  <line x1="548.3" y1="452.2" x2="605.2" y2="493.0" stroke="#333333" stroke-width="23.5" stroke-linecap="round"/>
  <circle cx="602.7" cy="90.5" r="45.3" fill="#ff0e0e" stroke="#020202" stroke-width="9.4"/>
  <line x1="634.6" y1="103.5" x2="690.8" y2="126.4" stroke="#333333" stroke-width="23.5" stroke-linecap="round"/>
  <circle cx="248.7" cy="564.5" r="26.6" fill="#ffffff" stroke="#010101" stroke-width="9.4"/>
  <line x1="258.4" y1="542.9" x2="292.7" y2="465.9" stroke="#333333" stroke-width="23.5" stroke-linecap="round"/>
  <circle cx="311.0" cy="424.9" r="50.5" fill="#909090" stroke="#000000" stroke-width="9.4"/>
  <line x1="303.4" y1="414.3" x2="289.3" y2="394.6" stroke="#333333" stroke-width="23.5" stroke-linecap="round"/>
  <circle cx="621.5" cy="504.7" r="26.6" fill="#ffffff" stroke="#000000" stroke-width="9.4"/>
  <circle cx="709.5" cy="134.0" r="26.6" fill="#ffffff" stroke="#000000" stroke-width="9.4"/>
  <circle cx="285.3" cy="389.0" r="26.6" fill="#ffffff" stroke="#000000" stroke-width="9.4"/>
</svg>